# xmcd CD database file
#
# Track frame offsets:
#	182
#	16320
#	38832
#	62057
#	81532
#	102595
#	121857
#	144395
#	156857
#	175857
#	193245
#	212570
#	233282
#	254785
#	271957
#
# Disc length: 3852 seconds
#
# Revision: 0
# Processed by: cddbd v1.5.2PL0 Copyright (c) Steve Scherf et al.
# Submitted via: CDex 1.51
#
DISCID=d30f0a0f
DTITLE=Various Artist - Todos a bailar
DYEAR=1996
DGENRE=Salsa
TTITLE0=Cachete, pechito y ombligo
TTITLE1=El Venao
TTITLE2=Ven, devorame otra vez
TTITLE3=No estamos lokos
TTITLE4=El mujeron
TTITLE5=Maria
TTITLE6=Sopa de caracol
TTITLE7=Pollito con papas
TTITLE8=La loca
TTITLE9=La gota fria
TTITLE10=El tostadero
TTITLE11=Juana la cubana
TTITLE12=Rumbera
TTITLE13=Amor
TTITLE14=Cachete, pechito y ombligo (pechito mix)
EXTD=YEAR: 1996
EXTT0=
EXTT1=
EXTT2=
EXTT3=
EXTT4=
EXTT5=
EXTT6=
EXTT7=
EXTT8=
EXTT9=
EXTT10=
EXTT11=
EXTT12=
EXTT13=
EXTT14=
PLAYORDER=
